<svg id="visual" viewBox="0 0 900 600" width="900" height="600" xmlns="http://www.w3.org/2000/svg" xmlns:xlink="http://www.w3.org/1999/xlink" version="1.1"><g stroke-width="1" stroke-linejoin="bevel"><path d="M481 328L369 300L472 363Z" fill="#680000" stroke="#680000"></path><path d="M369 300L389 386L472 363Z" fill="#570001" stroke="#570001"></path><path d="M481 328L407 208L369 300Z" fill="#660000" stroke="#660000"></path><path d="M303 205L293 289L369 300Z" fill="#680000" stroke="#680000"></path><path d="M369 300L295 384L389 386Z" fill="#500000" stroke="#500000"></path><path d="M293 289L295 384L369 300Z" fill="#610001" stroke="#610001"></path><path d="M481 328L502 208L407 208Z" fill="#630001" stroke="#630001"></path><path d="M295 384L411 491L389 386Z" fill="#660000" stroke="#660000"></path><path d="M389 386L411 491L472 363Z" fill="#5e0001" stroke="#5e0001"></path><path d="M322 135L303 205L407 208Z" fill="#5a0001" stroke="#5a0001"></path><path d="M407 208L303 205L369 300Z" fill="#680000" stroke="#680000"></path><path d="M411 491L490 492L472 363Z" fill="#5a0001" stroke="#5a0001"></path><path d="M472 363L597 299L481 328Z" fill="#660000" stroke="#660000"></path><path d="M481 328L597 299L502 208Z" fill="#570001" stroke="#570001"></path><path d="M630 418L597 299L472 363Z" fill="#660000" stroke="#660000"></path><path d="M377 66L322 135L407 208Z" fill="#500000" stroke="#500000"></path><path d="M597 299L615 219L502 208Z" fill="#520000" stroke="#520000"></path><path d="M502 208L525 130L407 208Z" fill="#5a0001" stroke="#5a0001"></path><path d="M180 206L196 328L293 289Z" fill="#550001" stroke="#550001"></path><path d="M293 289L196 328L295 384Z" fill="#570001" stroke="#570001"></path><path d="M295 384L334 539L411 491Z" fill="#550001" stroke="#550001"></path><path d="M180 206L293 289L303 205Z" fill="#5c0001" stroke="#5c0001"></path><path d="M195 438L334 539L295 384Z" fill="#5e0001" stroke="#5e0001"></path><path d="M411 491L460 600L490 492Z" fill="#610001" stroke="#610001"></path><path d="M560 138L525 130L502 208Z" fill="#660000" stroke="#660000"></path><path d="M490 492L630 418L472 363Z" fill="#610001" stroke="#610001"></path><path d="M597 299L710 310L615 219Z" fill="#5a0001" stroke="#5a0001"></path><path d="M615 219L560 138L502 208Z" fill="#5a0001" stroke="#5a0001"></path><path d="M196 328L195 438L295 384Z" fill="#5a0001" stroke="#5a0001"></path><path d="M490 492L627 478L630 418Z" fill="#680000" stroke="#680000"></path><path d="M588 600L627 478L490 492Z" fill="#610001" stroke="#610001"></path><path d="M525 130L377 66L407 208Z" fill="#5e0001" stroke="#5e0001"></path><path d="M385 0L377 66L466 0Z" fill="#520000" stroke="#520000"></path><path d="M216 114L180 206L303 205Z" fill="#5a0001" stroke="#5a0001"></path><path d="M196 328L134 387L195 438Z" fill="#660000" stroke="#660000"></path><path d="M216 114L303 205L322 135Z" fill="#630001" stroke="#630001"></path><path d="M364 600L460 600L411 491Z" fill="#550001" stroke="#550001"></path><path d="M269 600L364 600L334 539Z" fill="#610001" stroke="#610001"></path><path d="M334 539L364 600L411 491Z" fill="#630001" stroke="#630001"></path><path d="M735 379L710 310L630 418Z" fill="#550001" stroke="#550001"></path><path d="M630 418L710 310L597 299Z" fill="#550001" stroke="#550001"></path><path d="M615 219L719 102L560 138Z" fill="#500000" stroke="#500000"></path><path d="M69 278L134 387L196 328Z" fill="#630001" stroke="#630001"></path><path d="M163 539L269 600L334 539Z" fill="#660000" stroke="#660000"></path><path d="M289 0L216 114L322 135Z" fill="#610001" stroke="#610001"></path><path d="M163 539L334 539L195 438Z" fill="#500000" stroke="#500000"></path><path d="M460 600L588 600L490 492Z" fill="#680000" stroke="#680000"></path><path d="M715 486L735 379L630 418Z" fill="#630001" stroke="#630001"></path><path d="M715 486L630 418L627 478Z" fill="#550001" stroke="#550001"></path><path d="M710 310L722 221L615 219Z" fill="#500000" stroke="#500000"></path><path d="M769 302L722 221L710 310Z" fill="#5c0001" stroke="#5c0001"></path><path d="M102 489L163 539L195 438Z" fill="#570001" stroke="#570001"></path><path d="M691 600L715 486L627 478Z" fill="#610001" stroke="#610001"></path><path d="M466 0L525 130L632 0Z" fill="#520000" stroke="#520000"></path><path d="M466 0L377 66L525 130Z" fill="#610001" stroke="#610001"></path><path d="M377 66L289 0L322 135Z" fill="#550001" stroke="#550001"></path><path d="M632 0L525 130L560 138Z" fill="#550001" stroke="#550001"></path><path d="M163 539L211 600L269 600Z" fill="#550001" stroke="#550001"></path><path d="M805 417L769 302L735 379Z" fill="#5a0001" stroke="#5a0001"></path><path d="M735 379L769 302L710 310Z" fill="#5a0001" stroke="#5a0001"></path><path d="M0 382L102 489L134 387Z" fill="#660000" stroke="#660000"></path><path d="M134 387L102 489L195 438Z" fill="#520000" stroke="#520000"></path><path d="M163 539L139 600L211 600Z" fill="#630001" stroke="#630001"></path><path d="M80 203L69 278L180 206Z" fill="#5e0001" stroke="#5e0001"></path><path d="M180 206L69 278L196 328Z" fill="#610001" stroke="#610001"></path><path d="M385 0L289 0L377 66Z" fill="#570001" stroke="#570001"></path><path d="M122 84L80 203L180 206Z" fill="#500000" stroke="#500000"></path><path d="M769 302L766 223L722 221Z" fill="#550001" stroke="#550001"></path><path d="M722 221L719 102L615 219Z" fill="#520000" stroke="#520000"></path><path d="M122 84L180 206L216 114Z" fill="#5e0001" stroke="#5e0001"></path><path d="M765 99L719 102L722 221Z" fill="#550001" stroke="#550001"></path><path d="M588 600L691 600L627 478Z" fill="#5c0001" stroke="#5c0001"></path><path d="M715 486L805 417L735 379Z" fill="#610001" stroke="#610001"></path><path d="M165 0L122 84L216 114Z" fill="#680000" stroke="#680000"></path><path d="M102 489L139 600L163 539Z" fill="#5c0001" stroke="#5c0001"></path><path d="M719 102L632 0L560 138Z" fill="#5a0001" stroke="#5a0001"></path><path d="M828 493L805 417L715 486Z" fill="#500000" stroke="#500000"></path><path d="M769 302L900 310L766 223Z" fill="#610001" stroke="#610001"></path><path d="M766 223L765 99L722 221Z" fill="#550001" stroke="#550001"></path><path d="M719 102L738 0L632 0Z" fill="#5e0001" stroke="#5e0001"></path><path d="M900 197L765 99L766 223Z" fill="#5a0001" stroke="#5a0001"></path><path d="M289 0L165 0L216 114Z" fill="#570001" stroke="#570001"></path><path d="M0 195L69 278L80 203Z" fill="#610001" stroke="#610001"></path><path d="M0 195L0 314L69 278Z" fill="#550001" stroke="#550001"></path><path d="M69 278L0 382L134 387Z" fill="#550001" stroke="#550001"></path><path d="M102 489L0 600L139 600Z" fill="#5a0001" stroke="#5a0001"></path><path d="M0 195L80 203L0 106Z" fill="#610001" stroke="#610001"></path><path d="M0 314L0 382L69 278Z" fill="#610001" stroke="#610001"></path><path d="M802 600L828 493L715 486Z" fill="#570001" stroke="#570001"></path><path d="M805 417L900 310L769 302Z" fill="#520000" stroke="#520000"></path><path d="M0 382L0 465L102 489Z" fill="#630001" stroke="#630001"></path><path d="M0 106L80 203L122 84Z" fill="#660000" stroke="#660000"></path><path d="M765 99L738 0L719 102Z" fill="#520000" stroke="#520000"></path><path d="M165 0L101 0L122 84Z" fill="#520000" stroke="#520000"></path><path d="M691 600L802 600L715 486Z" fill="#570001" stroke="#570001"></path><path d="M101 0L0 106L122 84Z" fill="#5c0001" stroke="#5c0001"></path><path d="M900 402L805 417L828 493Z" fill="#500000" stroke="#500000"></path><path d="M900 402L900 310L805 417Z" fill="#500000" stroke="#500000"></path><path d="M765 99L820 0L738 0Z" fill="#630001" stroke="#630001"></path><path d="M900 532L900 402L828 493Z" fill="#500000" stroke="#500000"></path><path d="M900 310L900 197L766 223Z" fill="#5a0001" stroke="#5a0001"></path><path d="M0 465L0 600L102 489Z" fill="#660000" stroke="#660000"></path><path d="M900 72L820 0L765 99Z" fill="#550001" stroke="#550001"></path><path d="M802 600L900 532L828 493Z" fill="#630001" stroke="#630001"></path><path d="M101 0L0 0L0 106Z" fill="#610001" stroke="#610001"></path><path d="M900 197L900 72L765 99Z" fill="#550001" stroke="#550001"></path><path d="M802 600L900 600L900 532Z" fill="#550001" stroke="#550001"></path><path d="M900 72L900 0L820 0Z" fill="#610001" stroke="#610001"></path></g></svg>