<svg id="visual" viewBox="0 0 900 600" width="900" height="600" xmlns="http://www.w3.org/2000/svg" xmlns:xlink="http://www.w3.org/1999/xlink" version="1.1"><path d="M0 181L13.7 197C27.3 213 54.7 245 82 248C109.3 251 136.7 225 163.8 216C191 207 218 215 245.2 204C272.3 193 299.7 163 327 169C354.3 175 381.7 217 409 231C436.3 245 463.7 231 491 208C518.3 185 545.7 153 573 135C600.3 117 627.7 113 654.8 124C682 135 709 161 736.2 164C763.3 167 790.7 147 818 150C845.3 153 872.7 179 886.3 192L900 205L900 0L886.3 0C872.7 0 845.3 0 818 0C790.7 0 763.3 0 736.2 0C709 0 682 0 654.8 0C627.7 0 600.3 0 573 0C545.7 0 518.3 0 491 0C463.7 0 436.3 0 409 0C381.7 0 354.3 0 327 0C299.7 0 272.3 0 245.2 0C218 0 191 0 163.8 0C136.7 0 109.3 0 82 0C54.7 0 27.3 0 13.7 0L0 0Z" fill="#9e90fa"></path><path d="M0 253L13.7 269C27.3 285 54.7 317 82 322C109.3 327 136.7 305 163.8 295C191 285 218 287 245.2 274C272.3 261 299.7 233 327 243C354.3 253 381.7 301 409 316C436.3 331 463.7 313 491 292C518.3 271 545.7 247 573 229C600.3 211 627.7 199 654.8 206C682 213 709 239 736.2 237C763.3 235 790.7 205 818 202C845.3 199 872.7 223 886.3 235L900 247L900 203L886.3 190C872.7 177 845.3 151 818 148C790.7 145 763.3 165 736.2 162C709 159 682 133 654.8 122C627.7 111 600.3 115 573 133C545.7 151 518.3 183 491 206C463.7 229 436.3 243 409 229C381.7 215 354.3 173 327 167C299.7 161 272.3 191 245.2 202C218 213 191 205 163.8 214C136.7 223 109.3 249 82 246C54.7 243 27.3 211 13.7 195L0 179Z" fill="#8877f6"></path><path d="M0 355L13.7 370C27.3 385 54.7 415 82 425C109.3 435 136.7 425 163.8 427C191 429 218 443 245.2 423C272.3 403 299.7 349 327 343C354.3 337 381.7 379 409 388C436.3 397 463.7 373 491 354C518.3 335 545.7 321 573 312C600.3 303 627.7 299 654.8 309C682 319 709 343 736.2 342C763.3 341 790.7 315 818 317C845.3 319 872.7 349 886.3 364L900 379L900 245L886.3 233C872.7 221 845.3 197 818 200C790.7 203 763.3 233 736.2 235C709 237 682 211 654.8 204C627.7 197 600.3 209 573 227C545.7 245 518.3 269 491 290C463.7 311 436.3 329 409 314C381.7 299 354.3 251 327 241C299.7 231 272.3 259 245.2 272C218 285 191 283 163.8 293C136.7 303 109.3 325 82 320C54.7 315 27.3 283 13.7 267L0 251Z" fill="#715df2"></path><path d="M0 445L13.7 454C27.3 463 54.7 481 82 488C109.3 495 136.7 491 163.8 495C191 499 218 511 245.2 486C272.3 461 299.7 399 327 394C354.3 389 381.7 441 409 459C436.3 477 463.7 461 491 441C518.3 421 545.7 397 573 387C600.3 377 627.7 381 654.8 394C682 407 709 429 736.2 421C763.3 413 790.7 375 818 374C845.3 373 872.7 409 886.3 427L900 445L900 377L886.3 362C872.7 347 845.3 317 818 315C790.7 313 763.3 339 736.2 340C709 341 682 317 654.8 307C627.7 297 600.3 301 573 310C545.7 319 518.3 333 491 352C463.7 371 436.3 395 409 386C381.7 377 354.3 335 327 341C299.7 347 272.3 401 245.2 421C218 441 191 427 163.8 425C136.7 423 109.3 433 82 423C54.7 413 27.3 383 13.7 368L0 353Z" fill="#614dd5"></path><path d="M0 601L13.7 601C27.3 601 54.7 601 82 601C109.3 601 136.7 601 163.8 601C191 601 218 601 245.2 601C272.3 601 299.7 601 327 601C354.3 601 381.7 601 409 601C436.3 601 463.7 601 491 601C518.3 601 545.7 601 573 601C600.3 601 627.7 601 654.8 601C682 601 709 601 736.2 601C763.3 601 790.7 601 818 601C845.3 601 872.7 601 886.3 601L900 601L900 443L886.3 425C872.7 407 845.3 371 818 372C790.7 373 763.3 411 736.2 419C709 427 682 405 654.8 392C627.7 379 600.3 375 573 385C545.7 395 518.3 419 491 439C463.7 459 436.3 475 409 457C381.7 439 354.3 387 327 392C299.7 397 272.3 459 245.2 484C218 509 191 497 163.8 493C136.7 489 109.3 493 82 486C54.7 479 27.3 461 13.7 452L0 443Z" fill="#513eb8"></path></svg>